<svg xmlns="http://www.w3.org/2000/svg" width="32" height="32" viewBox="0 0 32 32">
  <defs>
    <linearGradient id="bulkGrad" x1="0%" y1="0%" x2="100%" y2="100%">
      <stop offset="0%" style="stop-color:#8E44AD;stop-opacity:1" />
      <stop offset="100%" style="stop-color:#6C3483;stop-opacity:1" />
    </linearGradient>
    <linearGradient id="cargoGrad" x1="0%" y1="0%" x2="100%" y2="100%">
      <stop offset="0%" style="stop-color:#D35400;stop-opacity:1" />
      <stop offset="100%" style="stop-color:#A04000;stop-opacity:1" />
    </linearGradient>
    <linearGradient id="waterGrad" x1="0%" y1="0%" x2="100%" y2="100%">
      <stop offset="0%" style="stop-color:#87CEEB;stop-opacity:0.8" />
      <stop offset="100%" style="stop-color:#4682B4;stop-opacity:0.6" />
    </linearGradient>
  </defs>
  <g>
    <!-- 水面背景 -->
    <rect x="0" y="20" width="32" height="12" fill="url(#waterGrad)"/>
    <!-- 波浪效果 -->
    <path d="M0,22 Q8,20 16,22 T32,22" stroke="#45B7D1" stroke-width="1" fill="none" opacity="0.8"/>
    <path d="M0,24 Q8,22 16,24 T32,24" stroke="#45B7D1" stroke-width="1" fill="none" opacity="0.6"/>
    
    <!-- 船体 -->
    <ellipse cx="16" cy="22" rx="14" ry="3" fill="url(#bulkGrad)"/>
    
    <!-- 主甲板 -->
    <rect x="4" y="16" width="24" height="6" fill="url(#bulkGrad)" rx="1"/>
    
    <!-- 货舱1 -->
    <rect x="6" y="12" width="4" height="4" fill="#34495E" rx="0.5"/>
    <rect x="6.2" y="12.2" width="3.6" height="3" fill="url(#cargoGrad)" rx="0.3"/>
    <!-- 货物堆积效果 -->
    <ellipse cx="8" cy="13" rx="1.5" ry="0.8" fill="#A04000"/>
    <ellipse cx="7.2" cy="13.5" rx="1" ry="0.5" fill="#D35400"/>
    
    <!-- 货舱2 -->
    <rect x="11" y="12" width="4" height="4" fill="#34495E" rx="0.5"/>
    <rect x="11.2" y="12.2" width="3.6" height="3" fill="url(#cargoGrad)" rx="0.3"/>
    <!-- 货物堆积效果 -->
    <ellipse cx="13" cy="13" rx="1.5" ry="0.8" fill="#A04000"/>
    <ellipse cx="12.8" cy="13.5" rx="1" ry="0.5" fill="#D35400"/>
    
    <!-- 货舱3 -->
    <rect x="16" y="12" width="4" height="4" fill="#34495E" rx="0.5"/>
    <rect x="16.2" y="12.2" width="3.6" height="3" fill="url(#cargoGrad)" rx="0.3"/>
    <!-- 货物堆积效果 -->
    <ellipse cx="18" cy="13" rx="1.5" ry="0.8" fill="#A04000"/>
    <ellipse cx="17.5" cy="13.5" rx="1" ry="0.5" fill="#D35400"/>
    
    <!-- 货舱4 -->
    <rect x="21" y="12" width="4" height="4" fill="#34495E" rx="0.5"/>
    <rect x="21.2" y="12.2" width="3.6" height="3" fill="url(#cargoGrad)" rx="0.3"/>
    <!-- 货物堆积效果 -->
    <ellipse cx="23" cy="13" rx="1.5" ry="0.8" fill="#A04000"/>
    <ellipse cx="22.8" cy="13.5" rx="1" ry="0.5" fill="#D35400"/>
    
    <!-- 船桥/驾驶室 -->
    <rect x="26" y="8" width="4" height="8" fill="url(#bulkGrad)" rx="1"/>
    
    <!-- 起重机/装卸设备 -->
    <rect x="9" y="6" width="1" height="6" fill="#7F8C8D"/>
    <rect x="7" y="6" width="5" height="1" fill="#7F8C8D"/>
    <rect x="19" y="6" width="1" height="6" fill="#7F8C8D"/>
    <rect x="17" y="6" width="5" height="1" fill="#7F8C8D"/>
    
    <!-- 烟囱 -->
    <rect x="27" y="4" width="2" height="4" fill="#8B4513"/>
    
    <!-- 烟雾 -->
    <circle cx="28" cy="3" r="0.8" fill="#D3D3D3" opacity="0.6"/>
    <circle cx="29.5" cy="2" r="0.6" fill="#D3D3D3" opacity="0.4"/>
    
    <!-- 船首 -->
    <polygon points="2,22 4,18 4,26" fill="url(#bulkGrad)"/>
    
    <!-- 船尾 -->
    <polygon points="30,22 28,18 28,26" fill="url(#bulkGrad)"/>
    
    <!-- 驾驶室窗户 -->
    <rect x="27" y="9" width="1" height="1" fill="#87CEEB" rx="0.2"/>
    <rect x="28.5" y="9" width="1" height="1" fill="#87CEEB" rx="0.2"/>
    <rect x="27" y="11" width="1" height="1" fill="#87CEEB" rx="0.2"/>
    <rect x="28.5" y="11" width="1" height="1" fill="#87CEEB" rx="0.2"/>
    
    <!-- 货舱分隔线 -->
    <line x1="10" y1="12" x2="10" y2="16" stroke="#2C3E50" stroke-width="0.5"/>
    <line x1="15" y1="12" x2="15" y2="16" stroke="#2C3E50" stroke-width="0.5"/>
    <line x1="20" y1="12" x2="20" y2="16" stroke="#2C3E50" stroke-width="0.5"/>
    <line x1="25" y1="12" x2="25" y2="16" stroke="#2C3E50" stroke-width="0.5"/>
    
    <!-- 甲板栏杆 -->
    <line x1="4" y1="16" x2="26" y2="16" stroke="#BDC3C7" stroke-width="0.5" opacity="0.8"/>
  </g>
</svg>