<svg xmlns="http://www.w3.org/2000/svg" width="32" height="32" viewBox="0 0 32 32">
  <defs>
    <linearGradient id="commGrad" x1="0%" y1="0%" x2="100%" y2="100%">
      <stop offset="0%" style="stop-color:#FFEAA7;stop-opacity:1" />
      <stop offset="100%" style="stop-color:#FDCB6E;stop-opacity:1" />
    </linearGradient>
  </defs>
  <g>
    <!-- 信号波 -->
    <path d="M16,8 Q20,12 16,16 Q12,12 16,8" fill="none" stroke="#FFEAA7" stroke-width="1" opacity="0.6"/>
    <path d="M16,6 Q22,12 16,18 Q10,12 16,6" fill="none" stroke="#FFEAA7" stroke-width="1" opacity="0.4"/>
    <path d="M16,4 Q24,12 16,20 Q8,12 16,4" fill="none" stroke="#FFEAA7" stroke-width="1" opacity="0.2"/>
    <!-- 通信塔主体 -->
    <rect x="15" y="12" width="2" height="16" fill="url(#commGrad)"/>
    <!-- 天线支架 -->
    <rect x="12" y="12" width="8" height="1" fill="url(#commGrad)"/>
    <rect x="13" y="14" width="6" height="1" fill="url(#commGrad)"/>
    <rect x="14" y="16" width="4" height="1" fill="url(#commGrad)"/>
    <!-- 天线 -->
    <rect x="15.5" y="8" width="1" height="4" fill="url(#commGrad)"/>
    <circle cx="16" cy="8" r="1" fill="#FFFFFF"/>
    <!-- 基站设备 -->
    <rect x="12" y="24" width="8" height="4" fill="url(#commGrad)" rx="1"/>
    <!-- 信号指示灯 -->
    <circle cx="14" cy="26" r="0.5" fill="#00FF00"/>
    <circle cx="16" cy="26" r="0.5" fill="#FFFF00"/>
    <circle cx="18" cy="26" r="0.5" fill="#FF0000"/>
    <!-- 支撑线 -->
    <line x1="16" y1="12" x2="10" y2="20" stroke="url(#commGrad)" stroke-width="1"/>
    <line x1="16" y1="12" x2="22" y2="20" stroke="url(#commGrad)" stroke-width="1"/>
  </g>
</svg>