<svg xmlns="http://www.w3.org/2000/svg" width="32" height="32" viewBox="0 0 32 32">
  <defs>
    <linearGradient id="containerShipGrad" x1="0%" y1="0%" x2="100%" y2="100%">
      <stop offset="0%" style="stop-color:#2E86AB;stop-opacity:1" />
      <stop offset="100%" style="stop-color:#1B5E7A;stop-opacity:1" />
    </linearGradient>
    <linearGradient id="waterGrad" x1="0%" y1="0%" x2="100%" y2="100%">
      <stop offset="0%" style="stop-color:#87CEEB;stop-opacity:0.8" />
      <stop offset="100%" style="stop-color:#4682B4;stop-opacity:0.6" />
    </linearGradient>
  </defs>
  <g>
    <!-- 水面背景 -->
    <rect x="0" y="20" width="32" height="12" fill="url(#waterGrad)"/>
    <!-- 波浪效果 -->
    <path d="M0,22 Q8,20 16,22 T32,22" stroke="#45B7D1" stroke-width="1" fill="none" opacity="0.8"/>
    <path d="M0,24 Q8,22 16,24 T32,24" stroke="#45B7D1" stroke-width="1" fill="none" opacity="0.6"/>
    
    <!-- 船体 -->
    <ellipse cx="16" cy="22" rx="14" ry="3" fill="url(#containerShipGrad)"/>
    
    <!-- 船舱 -->
    <rect x="6" y="16" width="20" height="6" fill="url(#containerShipGrad)" rx="1"/>
    
    <!-- 集装箱堆叠 -->
    <!-- 第一排集装箱 -->
    <rect x="8" y="12" width="3" height="4" fill="#FF6B35" rx="0.2"/>
    <rect x="11" y="12" width="3" height="4" fill="#4ECDC4" rx="0.2"/>
    <rect x="14" y="12" width="3" height="4" fill="#45B7D1" rx="0.2"/>
    <rect x="17" y="12" width="3" height="4" fill="#96CEB4" rx="0.2"/>
    <rect x="20" y="12" width="3" height="4" fill="#FFEAA7" rx="0.2"/>
    
    <!-- 第二排集装箱 -->
    <rect x="9" y="8" width="3" height="4" fill="#FD79A8" rx="0.2"/>
    <rect x="12" y="8" width="3" height="4" fill="#6C5CE7" rx="0.2"/>
    <rect x="15" y="8" width="3" height="4" fill="#A29BFE" rx="0.2"/>
    <rect x="18" y="8" width="3" height="4" fill="#FD79A8" rx="0.2"/>
    
    <!-- 第三排集装箱 -->
    <rect x="13" y="4" width="3" height="4" fill="#00B894" rx="0.2"/>
    <rect x="16" y="4" width="3" height="4" fill="#E17055" rx="0.2"/>
    
    <!-- 船桥/驾驶室 -->
    <rect x="24" y="10" width="4" height="6" fill="url(#containerShipGrad)" rx="1"/>
    
    <!-- 烟囱 -->
    <rect x="25" y="6" width="2" height="4" fill="#8B4513"/>
    
    <!-- 烟雾 -->
    <circle cx="26" cy="5" r="0.8" fill="#D3D3D3" opacity="0.6"/>
    <circle cx="27.5" cy="4" r="0.6" fill="#D3D3D3" opacity="0.4"/>
    
    <!-- 船首 -->
    <polygon points="2,22 6,18 6,26" fill="url(#containerShipGrad)"/>
    
    <!-- 船尾 -->
    <polygon points="30,22 26,18 26,26" fill="url(#containerShipGrad)"/>
    
    <!-- 驾驶室窗户 -->
    <rect x="25" y="11" width="1" height="1" fill="#87CEEB" rx="0.2"/>
    <rect x="26.5" y="11" width="1" height="1" fill="#87CEEB" rx="0.2"/>
    <rect x="25" y="13" width="1" height="1" fill="#87CEEB" rx="0.2"/>
    <rect x="26.5" y="13" width="1" height="1" fill="#87CEEB" rx="0.2"/>
    
    <!-- 集装箱细节线条 -->
    <line x1="8" y1="14" x2="11" y2="14" stroke="#FFFFFF" stroke-width="0.3" opacity="0.8"/>
    <line x1="11" y1="14" x2="14" y2="14" stroke="#FFFFFF" stroke-width="0.3" opacity="0.8"/>
    <line x1="14" y1="14" x2="17" y2="14" stroke="#FFFFFF" stroke-width="0.3" opacity="0.8"/>
    <line x1="17" y1="14" x2="20" y2="14" stroke="#FFFFFF" stroke-width="0.3" opacity="0.8"/>
    <line x1="20" y1="14" x2="23" y2="14" stroke="#FFFFFF" stroke-width="0.3" opacity="0.8"/>
  </g>
</svg>