<svg xmlns="http://www.w3.org/2000/svg" width="32" height="32" viewBox="0 0 32 32">
  <defs>
    <linearGradient id="fishingGrad" x1="0%" y1="0%" x2="100%" y2="100%">
      <stop offset="0%" style="stop-color:#16A085;stop-opacity:1" />
      <stop offset="100%" style="stop-color:#138D75;stop-opacity:1" />
    </linearGradient>
    <linearGradient id="netGrad" x1="0%" y1="0%" x2="100%" y2="100%">
      <stop offset="0%" style="stop-color:#F4D03F;stop-opacity:0.8" />
      <stop offset="100%" style="stop-color:#F1C40F;stop-opacity:0.6" />
    </linearGradient>
    <linearGradient id="waterGrad" x1="0%" y1="0%" x2="100%" y2="100%">
      <stop offset="0%" style="stop-color:#87CEEB;stop-opacity:0.8" />
      <stop offset="100%" style="stop-color:#4682B4;stop-opacity:0.6" />
    </linearGradient>
  </defs>
  <g>
    <!-- 水面背景 -->
    <rect x="0" y="20" width="32" height="12" fill="url(#waterGrad)"/>
    <!-- 波浪效果 -->
    <path d="M0,22 Q8,20 16,22 T32,22" stroke="#45B7D1" stroke-width="1" fill="none" opacity="0.8"/>
    <path d="M0,24 Q8,22 16,24 T32,24" stroke="#45B7D1" stroke-width="1" fill="none" opacity="0.6"/>
    <path d="M0,26 Q8,24 16,26 T32,26" stroke="#45B7D1" stroke-width="1" fill="none" opacity="0.4"/>
    
    <!-- 船体 -->
    <ellipse cx="16" cy="22" rx="12" ry="3" fill="url(#fishingGrad)"/>
    
    <!-- 主甲板 -->
    <rect x="6" y="16" width="20" height="6" fill="url(#fishingGrad)" rx="1"/>
    
    <!-- 船舱 -->
    <rect x="8" y="12" width="12" height="4" fill="url(#fishingGrad)" rx="0.5"/>
    
    <!-- 驾驶室 -->
    <rect x="20" y="10" width="6" height="6" fill="url(#fishingGrad)" rx="0.5"/>
    
    <!-- 主桅杆 -->
    <rect x="11.5" y="2" width="1" height="10" fill="#8B4513"/>
    
    <!-- 副桅杆 -->
    <rect x="17.5" y="4" width="0.8" height="8" fill="#8B4513"/>
    
    <!-- 拖网臂 -->
    <rect x="4" y="8" width="1" height="8" fill="#7F8C8D"/>
    <rect x="27" y="8" width="1" height="8" fill="#7F8C8D"/>
    
    <!-- 拖网臂横梁 -->
    <rect x="4" y="8" width="4" height="0.8" fill="#7F8C8D"/>
    <rect x="24" y="8" width="4" height="0.8" fill="#7F8C8D"/>
    
    <!-- 渔网 -->
    <path d="M4,16 Q8,18 12,16 Q16,14 20,16 Q24,18 28,16" stroke="url(#netGrad)" stroke-width="1.5" fill="none"/>
    <path d="M4,18 Q8,20 12,18 Q16,16 20,18 Q24,20 28,18" stroke="url(#netGrad)" stroke-width="1.5" fill="none"/>
    <path d="M4,20 Q8,22 12,20 Q16,18 20,20 Q24,22 28,20" stroke="url(#netGrad)" stroke-width="1.5" fill="none"/>
    
    <!-- 渔网垂直线 -->
    <line x1="6" y1="16" x2="6" y2="20" stroke="url(#netGrad)" stroke-width="0.8" opacity="0.8"/>
    <line x1="10" y1="16" x2="10" y2="20" stroke="url(#netGrad)" stroke-width="0.8" opacity="0.8"/>
    <line x1="14" y1="16" x2="14" y2="20" stroke="url(#netGrad)" stroke-width="0.8" opacity="0.8"/>
    <line x1="18" y1="16" x2="18" y2="20" stroke="url(#netGrad)" stroke-width="0.8" opacity="0.8"/>
    <line x1="22" y1="16" x2="22" y2="20" stroke="url(#netGrad)" stroke-width="0.8" opacity="0.8"/>
    <line x1="26" y1="16" x2="26" y2="20" stroke="url(#netGrad)" stroke-width="0.8" opacity="0.8"/>
    
    <!-- 绞盘 -->
    <circle cx="9" cy="14" r="1.5" fill="#95A5A6"/>
    <circle cx="9" cy="14" r="1" fill="#7F8C8D"/>
    <circle cx="23" cy="14" r="1.5" fill="#95A5A6"/>
    <circle cx="23" cy="14" r="1" fill="#7F8C8D"/>
    
    <!-- 烟囱 -->
    <rect x="22" y="6" width="1.5" height="4" fill="#8B4513"/>
    
    <!-- 烟雾 -->
    <circle cx="22.8" cy="5" r="0.6" fill="#D3D3D3" opacity="0.6"/>
    <circle cx="24" cy="4.5" r="0.4" fill="#D3D3D3" opacity="0.4"/>
    
    <!-- 船首 -->
    <polygon points="4,22 6,18 6,26" fill="url(#fishingGrad)"/>
    
    <!-- 船尾 -->
    <polygon points="28,22 26,18 26,26" fill="url(#fishingGrad)"/>
    
    <!-- 驾驶室窗户 -->
    <rect x="21" y="11" width="1" height="1" fill="#87CEEB" rx="0.1"/>
    <rect x="22.5" y="11" width="1" height="1" fill="#87CEEB" rx="0.1"/>
    <rect x="24" y="11" width="1" height="1" fill="#87CEEB" rx="0.1"/>
    <rect x="21" y="13" width="1" height="1" fill="#87CEEB" rx="0.1"/>
    <rect x="22.5" y="13" width="1" height="1" fill="#87CEEB" rx="0.1"/>
    <rect x="24" y="13" width="1" height="1" fill="#87CEEB" rx="0.1"/>
    
    <!-- 船舱窗户 -->
    <rect x="9" y="13" width="1" height="1" fill="#87CEEB" rx="0.1"/>
    <rect x="11" y="13" width="1" height="1" fill="#87CEEB" rx="0.1"/>
    <rect x="13" y="13" width="1" height="1" fill="#87CEEB" rx="0.1"/>
    <rect x="15" y="13" width="1" height="1" fill="#87CEEB" rx="0.1"/>
    <rect x="17" y="13" width="1" height="1" fill="#87CEEB" rx="0.1"/>
    <rect x="19" y="13" width="1" height="1" fill="#87CEEB" rx="0.1"/>
    
    <!-- 鱼舱 -->
    <rect x="12" y="14" width="6" height="2" fill="#ECF0F1" rx="0.3"/>
    
    <!-- 鱼群（在鱼舱中） -->
    <ellipse cx="13" cy="15" rx="0.3" ry="0.2" fill="#E74C3C"/>
    <ellipse cx="14" cy="15.3" rx="0.3" ry="0.2" fill="#3498DB"/>
    <ellipse cx="15" cy="14.8" rx="0.3" ry="0.2" fill="#F39C12"/>
    <ellipse cx="16" cy="15.2" rx="0.3" ry="0.2" fill="#27AE60"/>
    <ellipse cx="17" cy="15" rx="0.3" ry="0.2" fill="#9B59B6"/>
    
    <!-- 导航灯 -->
    <circle cx="5" cy="19" r="0.3" fill="#E74C3C"/>
    <circle cx="27" cy="19" r="0.3" fill="#27AE60"/>
    
    <!-- 桅杆横梁 -->
    <rect x="9" y="4" width="5" height="0.5" fill="#8B4513"/>
    <rect x="15" y="6" width="5" height="0.5" fill="#8B4513"/>
    
    <!-- 渔船标识旗帜 -->
    <rect x="29" y="10" width="0.3" height="3" fill="#8B4513"/>
    <rect x="29.3" y="10" width="1.5" height="1" fill="#E74C3C"/>
    
    <!-- 甲板细节 -->
    <line x1="6" y1="18" x2="26" y2="18" stroke="#BDC3C7" stroke-width="0.3" opacity="0.6"/>
  </g>
</svg>