<svg xmlns="http://www.w3.org/2000/svg" width="32" height="32" viewBox="0 0 32 32">
  <defs>
    <linearGradient id="portGrad" x1="0%" y1="0%" x2="100%" y2="100%">
      <stop offset="0%" style="stop-color:#45B7D1;stop-opacity:1" />
      <stop offset="100%" style="stop-color:#2E86AB;stop-opacity:1" />
    </linearGradient>
  </defs>
  <g>
    <!-- 水面 -->
    <rect x="0" y="20" width="32" height="12" fill="#87CEEB" opacity="0.6"/>
    <!-- 波浪 -->
    <path d="M0,24 Q8,22 16,24 T32,24" stroke="#45B7D1" stroke-width="1" fill="none" opacity="0.8"/>
    <path d="M0,26 Q8,24 16,26 T32,26" stroke="#45B7D1" stroke-width="1" fill="none" opacity="0.6"/>
    <!-- 码头 -->
    <rect x="4" y="16" width="24" height="4" fill="url(#portGrad)"/>
    <!-- 起重机 -->
    <rect x="8" y="8" width="2" height="12" fill="url(#portGrad)"/>
    <rect x="6" y="8" width="6" height="2" fill="url(#portGrad)"/>
    <rect x="18" y="6" width="2" height="14" fill="url(#portGrad)"/>
    <rect x="16" y="6" width="6" height="2" fill="url(#portGrad)"/>
    <!-- 船只 -->
    <ellipse cx="26" cy="22" rx="4" ry="2" fill="url(#portGrad)"/>
    <rect x="24" y="18" width="4" height="4" fill="url(#portGrad)"/>
    <!-- 集装箱 -->
    <rect x="12" y="12" width="3" height="4" fill="#FF6B35"/>
    <rect x="15" y="14" width="3" height="2" fill="#4ECDC4"/>
  </g>
</svg>