<svg xmlns="http://www.w3.org/2000/svg" width="32" height="32" viewBox="0 0 32 32">
  <defs>
    <linearGradient id="shipGrad" x1="0%" y1="0%" x2="100%" y2="100%">
      <stop offset="0%" style="stop-color:#4A90E2;stop-opacity:1" />
      <stop offset="100%" style="stop-color:#2E5BBA;stop-opacity:1" />
    </linearGradient>
    <linearGradient id="waterGrad" x1="0%" y1="0%" x2="100%" y2="100%">
      <stop offset="0%" style="stop-color:#87CEEB;stop-opacity:0.8" />
      <stop offset="100%" style="stop-color:#4682B4;stop-opacity:0.6" />
    </linearGradient>
  </defs>
  <g>
    <!-- 水面背景 -->
    <rect x="0" y="20" width="32" height="12" fill="url(#waterGrad)"/>
    <!-- 波浪效果 -->
    <path d="M0,22 Q8,20 16,22 T32,22" stroke="#45B7D1" stroke-width="1" fill="none" opacity="0.8"/>
    <path d="M0,24 Q8,22 16,24 T32,24" stroke="#45B7D1" stroke-width="1" fill="none" opacity="0.6"/>
    <path d="M0,26 Q8,24 16,26 T32,26" stroke="#45B7D1" stroke-width="1" fill="none" opacity="0.4"/>
    
    <!-- 船体 -->
    <ellipse cx="16" cy="22" rx="12" ry="3" fill="url(#shipGrad)"/>
    
    <!-- 船舱 -->
    <rect x="8" y="16" width="16" height="6" fill="url(#shipGrad)" rx="1"/>
    
    <!-- 船桥/驾驶室 -->
    <rect x="12" y="12" width="8" height="4" fill="url(#shipGrad)" rx="1"/>
    
    <!-- 烟囱 -->
    <rect x="14" y="8" width="2" height="4" fill="#8B4513"/>
    <rect x="18" y="9" width="1.5" height="3" fill="#8B4513"/>
    
    <!-- 烟雾 -->
    <circle cx="15" cy="7" r="1" fill="#D3D3D3" opacity="0.6"/>
    <circle cx="17" cy="6" r="0.8" fill="#D3D3D3" opacity="0.4"/>
    <circle cx="19" cy="7.5" r="0.6" fill="#D3D3D3" opacity="0.3"/>
    
    <!-- 船首 -->
    <polygon points="4,22 8,19 8,25" fill="url(#shipGrad)"/>
    
    <!-- 船尾 -->
    <polygon points="28,22 24,19 24,25" fill="url(#shipGrad)"/>
    
    <!-- 窗户 -->
    <rect x="13" y="13" width="1.5" height="1.5" fill="#87CEEB" rx="0.2"/>
    <rect x="15" y="13" width="1.5" height="1.5" fill="#87CEEB" rx="0.2"/>
    <rect x="17" y="13" width="1.5" height="1.5" fill="#87CEEB" rx="0.2"/>
    
    <!-- 船舱窗户 -->
    <rect x="10" y="17" width="1" height="1" fill="#87CEEB" rx="0.2"/>
    <rect x="12" y="17" width="1" height="1" fill="#87CEEB" rx="0.2"/>
    <rect x="19" y="17" width="1" height="1" fill="#87CEEB" rx="0.2"/>
    <rect x="21" y="17" width="1" height="1" fill="#87CEEB" rx="0.2"/>
    
    <!-- 锚点 -->
    <circle cx="6" cy="20" r="1" fill="#2F4F4F"/>
    <path d="M6,19 L6,21 M5,20 L7,20" stroke="#2F4F4F" stroke-width="0.5"/>
  </g>
</svg>