<svg xmlns="http://www.w3.org/2000/svg" width="32" height="32" viewBox="0 0 32 32">
  <defs>
    <linearGradient id="trainGrad" x1="0%" y1="0%" x2="100%" y2="100%">
      <stop offset="0%" style="stop-color:#96CEB4;stop-opacity:1" />
      <stop offset="100%" style="stop-color:#85C1A3;stop-opacity:1" />
    </linearGradient>
  </defs>
  <g>
    <!-- 铁轨 -->
    <rect x="0" y="24" width="32" height="2" fill="#8B4513"/>
    <rect x="0" y="28" width="32" height="2" fill="#8B4513"/>
    <!-- 枕木 -->
    <rect x="2" y="22" width="2" height="8" fill="#654321"/>
    <rect x="8" y="22" width="2" height="8" fill="#654321"/>
    <rect x="14" y="22" width="2" height="8" fill="#654321"/>
    <rect x="20" y="22" width="2" height="8" fill="#654321"/>
    <rect x="26" y="22" width="2" height="8" fill="#654321"/>
    <!-- 火车车厢 -->
    <rect x="6" y="12" width="20" height="10" fill="url(#trainGrad)" rx="2"/>
    <!-- 车窗 -->
    <rect x="8" y="14" width="4" height="3" fill="#87CEEB" rx="1"/>
    <rect x="14" y="14" width="4" height="3" fill="#87CEEB" rx="1"/>
    <rect x="20" y="14" width="4" height="3" fill="#87CEEB" rx="1"/>
    <!-- 车头 -->
    <rect x="4" y="14" width="4" height="8" fill="url(#trainGrad)" rx="2"/>
    <circle cx="6" cy="18" r="1" fill="#FFFFFF"/>
    <!-- 车轮 -->
    <circle cx="10" cy="22" r="2" fill="#2F4F4F"/>
    <circle cx="16" cy="22" r="2" fill="#2F4F4F"/>
    <circle cx="22" cy="22" r="2" fill="#2F4F4F"/>
    <!-- 站台 -->
    <rect x="0" y="8" width="32" height="4" fill="#D3D3D3"/>
    <rect x="28" y="4" width="2" height="8" fill="#696969"/>
  </g>
</svg>